<?xml version="1.0" encoding="UTF-8"?>
<svg id="Layer_1" data-name="Layer 1" xmlns="http://www.w3.org/2000/svg" version="1.1" viewBox="0 0 1436.4 448">
  <defs>
    <style>
      .cls-1, .cls-2 {
        fill: #ee0ed7;
      }

      .cls-1, .cls-2, .cls-3 {
        stroke-width: 0px;
      }

      .cls-2 {
        fill-rule: evenodd;
      }

      .cls-3 {
        fill: #fff;
      }
    </style>
  </defs>
  <path class="cls-1" d="M234.6,61.9c89.7,0,162.1,72.4,162.1,162.1s-72.4,162.1-162.1,162.1-162.1-72.4-162.1-162.2S144.9,61.9,234.6,61.9ZM234.6,34.4c-104.5,0-189.6,85-189.6,189.6s85,189.6,189.6,189.6,189.6-85,189.6-189.6S339.2,34.4,234.6,34.4Z"/>
  <path class="cls-2" d="M304.4,189v68.8c5.9-3.1,14.4-7.7,23.8-12.8,22-11.9,22-31,0-43l-23.8-13ZM184.5,127.5c-11.7,0-22.3,9.5-22,22.5v146.8c0,20.7,14.5,29.4,32.8,19.6,29.8-16,59.5-32,93.1-50v-86l-31.3-16.8v80l-16,8.6v-97.2l-31.3-16.8v130.9l-16,8.6v-148c-3.1-1.5-6.2-2.3-9.3-2.3Z"/>
  <g>
    <path class="cls-3" d="M528.4,292.4l-50.1-134.4c-1.6-4.5.5-7.6,5.2-7.6h23.8c3.7,0,6.3,1.8,7.6,5.2l35.4,106.1,33.3-105.9c1.1-3.7,3.9-5.5,7.6-5.5h25.7c3.7,0,6.6,1.8,7.6,5.5l33.3,105.9,35.1-106.1c1.1-3.7,3.9-5.2,7.6-5.2h24.6c4.7,0,6.8,3.1,5.2,7.6l-50.8,134.4c-1.3,3.4-3.7,5.2-7.3,5.2h-28.6c-3.7,0-6.6-1.8-7.6-5.5l-32-100.9-32.2,100.9c-1.1,3.7-3.9,5.5-7.6,5.5h-28.6c-3.7,0-6-1.8-7.3-5.2Z"/>
    <path class="cls-3" d="M741.9,239.5v-31.7c0-36.4,12.1-57.4,54.2-57.4h43.5c42.2,0,54.2,21,54.2,57.4v31.7c0,37.5-12.1,58.2-54.2,58.2h-43.5c-42.2,0-54.2-20.7-54.2-58.2ZM838.8,265.4c15.7,0,20.4-4.2,20.4-22.3v-38.5c0-17.8-4.4-22-20.4-22h-41.9c-16,0-20.4,4.2-20.4,22v38.5c0,18.1,4.7,22.3,20.4,22.3h41.9Z"/>
    <path class="cls-3" d="M956.2,292.4l-50.1-134.4c-1.6-4.5.5-7.6,5.2-7.6h23.8c3.7,0,6.3,1.8,7.6,5.2l35.4,106.1,33.3-105.9c1.1-3.7,3.9-5.5,7.6-5.5h25.7c3.7,0,6.6,1.8,7.6,5.5l33.3,105.9,35.1-106.1c1.1-3.7,3.9-5.2,7.6-5.2h24.6c4.7,0,6.8,3.1,5.2,7.6l-50.8,134.4c-1.3,3.4-3.7,5.2-7.3,5.2h-28.6c-3.7,0-6.6-1.8-7.6-5.5l-32-100.9-32.2,100.9c-1.1,3.7-3.9,5.5-7.6,5.5h-28.6c-3.7,0-6-1.8-7.3-5.2Z"/>
    <path class="cls-3" d="M1228.5,292.7l-61.8-134.7c-2.1-4.7-.3-7.6,4.7-7.6h23.8c3.7,0,6,1.6,7.6,5l47.9,108.2,47.7-108.2c1.6-3.4,3.9-5,7.6-5h24.4c5,0,6.8,2.9,4.7,7.6l-62.4,134.7c-1.6,3.1-4.2,5-7.9,5h-28.6c-3.7,0-6.3-1.8-7.9-5Z"/>
    <path class="cls-3" d="M1355.8,128.4v-23.1c0-4.2,2.4-6.5,6.6-6.5h21.5c4.2,0,6.6,2.4,6.6,6.5v23.1c0,4.2-2.4,6.5-6.6,6.5h-21.5c-4.2,0-6.6-2.4-6.6-6.5ZM1355.8,291.1v-134.2c0-4.2,2.4-6.5,6.6-6.5h21.5c4.2,0,6.6,2.4,6.6,6.5v134.2c0,4.2-2.4,6.5-6.6,6.5h-21.5c-4.2,0-6.6-2.4-6.6-6.5Z"/>
  </g>
  <g>
    <path class="cls-1" d="M864.6,385.4v-51.2c0-1,.5-1.5,1.5-1.5h33.1c13.1,0,18.1,6.3,18.1,20.4v13.8c0,14-5,20.1-18.1,20.1h-33.1c-1,0-1.5-.5-1.5-1.5ZM898.6,379.7c8.3,0,11.4-2.5,11.4-12.9v-13.8c0-10.4-3-13.1-11.4-13.1h-26.4v39.7h26.4Z"/>
    <path class="cls-1" d="M929.4,368.3v-16.8c0-12,5-18.7,18.2-18.7h19.3c13.2,0,18.2,6.8,18.2,18.7v16.8c0,11.9-5,18.7-18.2,18.7h-19.3c-13.2,0-18.2-6.8-18.2-18.7ZM966.9,379.6c7.8,0,10.7-2.5,10.7-11.1v-17.3c0-8.8-2.8-11.2-10.7-11.2h-19.3c-7.8,0-10.7,2.5-10.7,11.2v17.3c0,8.7,3,11.1,10.7,11.1h19.3Z"/>
    <path class="cls-1" d="M1010.8,385.7l-17.4-51.3c-.4-1.1.2-1.8,1.2-1.8h4.8c.8,0,1.4.3,1.7,1.2l14,42.9,14.1-42.9c.3-.9.8-1.2,1.7-1.2h5.2c.8,0,1.4.3,1.7,1.2l14,42.9,14.1-42.9c.3-.9.8-1.2,1.7-1.2h4.8c1.1,0,1.6.7,1.2,1.8l-17.4,51.3c-.3.8-.9,1.2-1.8,1.2h-5.1c-.8,0-1.4-.3-1.7-1.2l-14-42.5-14.1,42.5c-.3.9-.8,1.2-1.7,1.2h-5.1c-.8,0-1.5-.4-1.8-1.2Z"/>
    <path class="cls-1" d="M1084.2,385.4v-51.2c0-1,.5-1.5,1.5-1.5h4.8c.8,0,1.5.3,1.9.9l35,42.3v-41.7c0-1,.5-1.5,1.5-1.5h4.5c1,0,1.5.5,1.5,1.5v51.2c0,1-.5,1.5-1.5,1.5h-5c-.8,0-1.5-.3-1.9-.9l-34.8-42.1v41.5c0,1-.5,1.5-1.5,1.5h-4.5c-1,0-1.5-.5-1.5-1.5Z"/>
    <path class="cls-1" d="M1148.6,385.4v-51.2c0-1,.5-1.5,1.5-1.5h4.5c1,0,1.5.5,1.5,1.5v45.4h35c1,0,1.5.5,1.5,1.5v4.2c0,1-.5,1.5-1.5,1.5h-41c-1,0-1.5-.5-1.5-1.5Z"/>
    <path class="cls-1" d="M1202,368.3v-16.8c0-12,5-18.7,18.2-18.7h19.3c13.2,0,18.2,6.8,18.2,18.7v16.8c0,11.9-5,18.7-18.2,18.7h-19.3c-13.2,0-18.2-6.8-18.2-18.7ZM1239.5,379.6c7.8,0,10.7-2.5,10.7-11.1v-17.3c0-8.8-2.8-11.2-10.7-11.2h-19.3c-7.8,0-10.7,2.5-10.7,11.2v17.3c0,8.7,3,11.1,10.7,11.1h19.3Z"/>
    <path class="cls-1" d="M1319.3,385.8l-4.6-9.1h-36l-4.7,9.2c-.4.8-.9,1.1-1.8,1.1h-5.1c-1.2,0-1.7-.8-1.2-1.8l26.3-51.3c.4-.8.9-1.1,1.8-1.1h5.4c.8,0,1.4.3,1.8,1.1l26.2,51.3c.5,1.1,0,1.8-1.2,1.8h-5.1c-.8,0-1.4-.4-1.8-1.2ZM1311.5,370.2l-14.7-29.4-14.8,29.4h29.5Z"/>
    <path class="cls-1" d="M1338.6,385.4v-51.2c0-1,.5-1.5,1.5-1.5h33.1c13.1,0,18.1,6.3,18.1,20.4v13.8c0,14-5,20.1-18.1,20.1h-33.1c-1,0-1.5-.5-1.5-1.5ZM1372.5,379.7c8.3,0,11.4-2.5,11.4-12.9v-13.8c0-10.4-3-13.1-11.4-13.1h-26.4v39.7h26.4Z"/>
  </g>
</svg>